<?xml version="1.0" encoding="UTF-8"?>
<svg id="Layer_1" data-name="Layer 1" xmlns="http://www.w3.org/2000/svg" version="1.1" viewBox="0 0 145 32.497">
  <defs>
    <style>
      .cls-1 {
        fill: #1a2039;
        stroke-width: 0px;
      }
    </style>
  </defs>
  <path class="cls-1" d="M39.031,26.821v1.399h-6.519v-1.399c0-.4.194-.642.599-.734.025,0,.083-.027.148-.031.064-.015.181-.035.361-.054.154-.043.392-.069.688-.135v-7.458c-.296-.054-.534-.085-.688-.115-.181-.035-.297-.065-.361-.073-.065-.007-.123-.019-.148-.027-.405-.081-.599-.319-.599-.738v-1.391h4.723v9.802c.296.065.526.092.715.135.167.019.277.039.34.054.065.004.109.031.15.031.392.092.592.334.592.734M37.517,13.23c-.102.211-.238.411-.406.58-.167.165-.375.303-.593.392-.238.096-.482.153-.748.153-.244,0-.482-.057-.715-.153-.225-.089-.411-.227-.578-.392-.169-.169-.303-.369-.388-.58-.102-.219-.167-.45-.167-.707,0-.261.065-.511.167-.742.085-.227.219-.419.388-.595.167-.158.354-.288.578-.384.233-.104.471-.161.715-.161.265,0,.509.057.748.161.219.096.427.227.593.384.167.177.304.369.406.595.103.231.148.48.148.742,0,.257-.044.488-.148.707"/>
  <path class="cls-1" d="M52.397,28.174h-3.433c-.192,0-.361-.042-.496-.127-.129-.092-.213-.227-.258-.415l-.238-1.114c-.49.557-1.043.999-1.689,1.36-.63.342-1.378.515-2.229.515-.663,0-1.276-.135-1.829-.411-.54-.277-1.01-.676-1.418-1.21-.398-.515-.701-1.16-.92-1.933-.219-.772-.323-1.649-.323-2.648,0-.914.123-1.752.375-2.532.238-.772.586-1.437,1.03-2.01.465-.569,1.018-1.01,1.662-1.333.645-.315,1.36-.484,2.159-.476.688,0,1.268.103,1.75.307.465.215.896.503,1.284.884v-4.073c-.296-.058-.528-.096-.709-.115-.161-.039-.284-.062-.348-.062-.057-.015-.109-.035-.148-.035-.393-.088-.586-.334-.586-.745v-1.387h4.715v15.236c.257.046.463.085.605.111.155.019.257.043.315.043.057.019.098.027.136.035.392.077.6.334.6.734l-.008,1.402ZM47.825,19.171c-.329-.415-.696-.704-1.09-.865-.386-.161-.811-.238-1.256-.238s-.843.085-1.21.246c-.348.157-.657.411-.903.753-.25.346-.444.772-.586,1.28-.129.523-.192,1.134-.192,1.844s.064,1.307.173,1.81c.117.496.265.888.49,1.191.213.315.471.534.78.688.29.131.644.208,1.03.208.613,0,1.128-.127,1.56-.384.425-.246.83-.619,1.205-1.084v-5.449Z"/>
  <path class="cls-1" d="M65.739,28.174h-3.439c-.188,0-.348-.042-.484-.127-.129-.092-.225-.227-.263-.415l-.238-1.114c-.484.557-1.051.999-1.689,1.36-.624.342-1.378.515-2.229.515-.67,0-1.276-.135-1.823-.411-.54-.277-1.018-.676-1.418-1.21-.398-.515-.707-1.16-.92-1.933-.219-.772-.329-1.649-.329-2.648,0-.914.115-1.752.361-2.532.252-.772.592-1.437,1.057-2.01.449-.569,1.005-1.01,1.642-1.333.644-.315,1.364-.484,2.171-.476.676,0,1.254.103,1.745.307.476.215.895.503,1.281.884v-4.073c-.296-.058-.526-.096-.695-.115-.187-.039-.288-.062-.367-.062-.052-.015-.109-.035-.135-.035-.405-.088-.593-.334-.593-.745v-1.387h4.709v15.236c.258.046.457.085.613.111.154.019.25.043.315.043.065.019.109.027.129.035.405.077.599.334.599.734v1.402ZM61.164,19.171c-.334-.415-.695-.704-1.087-.865-.386-.161-.813-.238-1.262-.238-.438,0-.838.085-1.199.246-.367.157-.663.411-.909.753-.257.346-.451.772-.58,1.28-.129.523-.206,1.134-.206,1.844s.065,1.307.175,1.81c.115.496.29.888.495,1.191.206.315.471.534.772.688.304.131.646.208,1.038.208.613,0,1.134-.127,1.566-.384.419-.246.83-.619,1.197-1.084v-5.449Z"/>
  <path class="cls-1" d="M74.204,16.246c.644.235,1.191.596,1.668,1.068.471.469.824,1.041,1.09,1.725.263.684.386,1.464.386,2.34,0,.223-.007.396-.033.553-.013.146-.052.265-.104.346-.058.077-.121.135-.206.177-.096.039-.2.058-.329.058h-7.518c.085,1.241.419,2.155,1.005,2.747.594.58,1.366.872,2.327.872.471,0,.882-.046,1.224-.169.348-.107.651-.219.901-.361.257-.135.476-.261.684-.373.187-.107.379-.161.559-.161.123,0,.213.019.304.073.096.05.161.1.219.192l.857,1.08c-.329.369-.676.692-1.084.941-.398.258-.824.465-1.262.619-.444.157-.888.265-1.339.323-.457.065-.896.096-1.328.096-.838,0-1.616-.135-2.35-.419-.73-.281-1.354-.696-1.894-1.241-.548-.549-.966-1.226-1.27-2.036-.315-.811-.463-1.741-.463-2.817,0-.822.129-1.61.4-2.336.277-.734.649-1.368,1.153-1.913.501-.542,1.114-.972,1.842-1.284.715-.315,1.539-.476,2.442-.476.765,0,1.468.131,2.119.377M70.145,18.694c-.482.48-.792,1.156-.926,2.048h5.501c0-.388-.058-.738-.148-1.076-.104-.331-.265-.626-.484-.872-.205-.258-.482-.469-.799-.604-.327-.15-.707-.227-1.134-.227-.855,0-1.533.25-2.009.73"/>
  <path class="cls-1" d="M92.132,26.821v1.399h-4.717v-7.739c0-.753-.173-1.31-.521-1.718-.342-.419-.851-.611-1.547-.611-.501,0-.98.107-1.418.342-.444.223-.868.538-1.255.938v6.436c.296.065.528.092.702.135.175.019.29.039.347.057.065.015.117.027.148.027.394.092.594.334.594.734v1.399h-6.519v-1.399c0-.4.2-.642.592-.734.033,0,.084-.012.155-.027.063-.019.181-.038.348-.057.167-.043.411-.069.707-.135v-7.454c-.296-.058-.54-.089-.707-.119-.167-.035-.284-.065-.348-.073-.071-.007-.123-.019-.155-.027-.392-.081-.592-.319-.592-.738v-1.391h3.587c.386,0,.632.181.747.526l.2.953c.238-.246.503-.469.78-.676.263-.211.561-.388.868-.542.29-.146.632-.25.974-.334.348-.084.72-.123,1.14-.123.657,0,1.25.115,1.766.342.515.227.94.542,1.282.949.342.415.605.888.78,1.453.187.569.269,1.191.269,1.867v5.387c.298.065.528.092.703.135.175.019.284.039.348.057.065.015.123.027.148.027.405.092.594.334.594.734"/>
  <path class="cls-1" d="M101.433,11.001v14.867c.29.065.523.092.696.135.175.019.296.039.355.054.071.004.115.031.148.031.4.092.598.334.598.734v1.399h-6.782v-1.399c0-.4.206-.642.594-.734.039,0,.083-.027.154-.031.057-.015.175-.035.348-.054.181-.043.413-.069.709-.135v-14.867h3.182Z"/>
  <path class="cls-1" d="M118.311,26.81v1.383h-2.79c-.277,0-.49-.046-.651-.127-.148-.077-.277-.246-.361-.496l-.25-.864c-.315.269-.619.523-.909.726-.296.215-.599.38-.914.538-.323.127-.657.242-1.018.3-.353.077-.747.119-1.178.119-.517,0-.993-.073-1.424-.207-.438-.15-.813-.353-1.128-.63-.304-.284-.555-.626-.728-1.026-.161-.427-.244-.903-.244-1.441,0-.465.109-.918.359-1.376.233-.43.638-.838,1.193-1.203.567-.361,1.307-.657,2.248-.903.928-.231,2.087-.342,3.472-.342v-.734c0-.803-.181-1.422-.523-1.817-.34-.384-.843-.584-1.5-.584-.471,0-.87.05-1.18.169-.321.1-.592.231-.824.365-.238.142-.45.257-.649.38-.2.111-.413.153-.646.153-.198,0-.373-.038-.515-.146-.148-.104-.257-.235-.34-.388l-.536-.934c1.404-1.268,3.086-1.914,5.064-1.914.707,0,1.345.115,1.906.354.553.235,1.024.557,1.404.968.394.411.682.907.882,1.487.206.569.304,1.206.304,1.895v5.379c.271.058.477.096.624.115.148.031.238.046.257.046.394.096.594.334.594.753M113.983,23.032c-.857,0-1.574.061-2.139.169-.574.115-1.026.246-1.38.411-.347.169-.592.361-.741.595-.148.211-.219.45-.219.715,0,.534.148.895.457,1.114.298.223.696.334,1.193.334.296,0,.578-.035.824-.092.257-.05.482-.127.715-.238.219-.104.438-.242.657-.4.206-.161.425-.338.632-.565v-2.044Z"/>
  <path class="cls-1" d="M125.629,16.004c.456.111.876.265,1.255.477h3.493v1.084c0,.188-.033.323-.137.43-.102.104-.252.177-.49.208l-1.088.207c.077.2.14.411.181.657.044.219.069.469.069.715,0,.592-.129,1.145-.367,1.622-.238.496-.573.911-.985,1.253-.43.334-.934.596-1.514.776-.578.188-1.203.277-1.887.277-.451,0-.909-.039-1.339-.119-.381.231-.561.48-.561.772,0,.238.109.423.334.542.227.107.517.185.884.238.373.05.786.069,1.256.081.463.015.94.039,1.424.085.496.035.972.104,1.443.208.469.104.882.257,1.243.465.373.219.669.507.888.868.233.373.348.838.348,1.418,0,.534-.135,1.06-.398,1.564-.265.511-.651.953-1.147,1.345-.509.4-1.114.722-1.856.961-.715.246-1.546.361-2.48.361s-1.72-.089-2.396-.265c-.682-.185-1.257-.419-1.695-.707-.451-.303-.792-.646-1.005-1.026-.219-.392-.334-.796-.334-1.211,0-.565.181-1.049.521-1.437.355-.384.824-.699,1.451-.926-.298-.162-.548-.388-.722-.665-.181-.269-.277-.638-.277-1.068,0-.188.025-.373.096-.573.071-.192.161-.38.29-.573.123-.196.29-.361.49-.542.2-.161.432-.315.703-.453-.613-.334-1.095-.772-1.456-1.326-.342-.554-.528-1.203-.528-1.945,0-.599.123-1.153.367-1.629.238-.492.573-.903,1.005-1.237.425-.35.939-.615,1.527-.799.586-.173,1.236-.269,1.925-.269.523,0,1.012.058,1.47.158M127.163,28.181c-.142-.15-.35-.265-.588-.342-.25-.089-.528-.154-.857-.192-.327-.035-.676-.065-1.036-.085-.375-.019-.755-.046-1.147-.065-.394-.019-.766-.046-1.128-.104-.334.196-.605.415-.792.653-.213.25-.317.542-.317.849,0,.219.059.427.161.611.115.181.277.35.509.476.238.131.547.238.909.311.373.077.83.115,1.372.115s1.005-.039,1.41-.123c.386-.085.715-.208.966-.346.265-.139.445-.319.567-.511.123-.204.175-.427.175-.657,0-.25-.071-.43-.205-.592M125.113,21.695c.265-.096.49-.227.665-.408.173-.181.321-.384.406-.63.09-.246.134-.511.134-.807,0-.599-.181-1.076-.54-1.422-.361-.354-.889-.534-1.618-.534-.715,0-1.256.181-1.618.534-.367.346-.534.822-.534,1.422,0,.284.046.55.137.792.09.261.225.457.398.634.181.173.413.323.678.419.283.096.578.153.94.153.367,0,.684-.057.953-.153"/>
  <path class="cls-1" d="M10.59,4.995H2.951l-.065,2.824h7.562c.04-.911.079-1.845.142-2.824"/>
  <path class="cls-1" d="M20.214,4.995c-.011.257-.011.523-.019.807-.019.722-.038,1.399-.069,2.017h7.593c.039-.895.09-1.829.15-2.824h-7.654Z"/>
  <path class="cls-1" d="M23.242,10.183H3.06l-.175,2.817h24.833c.039-.899.09-1.833.15-2.817h-4.627Z"/>
  <path class="cls-1" d="M22.946,15.363H3.06l-.175,2.813h24.833c.039-.895.09-1.829.15-2.813h-4.922Z"/>
  <path class="cls-1" d="M12.923,0c-2.59.015-4.4.039-5.451.039-1.333,0-3.335-.023-6.016-.039l.013,1.948c0,.219,0,.465-.007.684h11.195c.085-.849.175-1.725.265-2.632"/>
  <path class="cls-1" d="M30.495,0c-3.105.015-4.992.039-5.648.039l-6.371-.039c.039.907.046,1.537.046,1.917,0,.181,0,.43-.007.715h11.737c.077-.841.155-1.725.244-2.632"/>
  <polygon class="cls-1" points="9.966 20.535 2.3 20.535 2.127 23.363 9.9 23.363 9.966 20.535"/>
  <path class="cls-1" d="M19.615,20.535c-.044.972-.089,1.914-.148,2.828h7.724c.013-.98.027-1.921.033-2.828h-7.608Z"/>
  <path class="cls-1" d="M16.967,28.251c3.332-.031,5.432-.039,6.313-.039l5.875.039c0-.7.142-1.956.155-2.628h-11.945c-.083.711-.296,1.967-.4,2.628"/>
  <path class="cls-1" d="M5.501,28.212l5.954.039.225-2.628H.329l-.329,2.628c2.918-.031,4.742-.039,5.501-.039"/>
  <path class="cls-1" d="M109.402,9.076c0,.296-.246.554-.561.554l-14.398.019c-.321,0-.573-.253-.573-.553l-.013-4.653c0-.307.258-.542.567-.542l14.404-.031c.309,0,.574.25.574.553v4.653Z"/>
  <path class="cls-1" d="M90.966,8.116c0,.423.219.761.495.761h1.199c.277,0,.502-.342.502-.761l-.012-2.724c0-.419-.221-.749-.497-.749h-1.197c-.279,0-.498.334-.498.761l.008,2.713Z"/>
  <path class="cls-1" d="M90.199,10.267c0,.303-.246.542-.567.545h-1.328c-.304,0-.561-.231-.561-.545l-.005-6.986c0-.3.244-.546.553-.546h1.328c.309,0,.561.238.561.546l.019,6.986Z"/>
  <path class="cls-1" d="M132.521,15.19c0-3.139,2.067-6.302,6.217-6.302s6.261,3.162,6.261,6.302c0,3.155-2.108,6.287-6.261,6.287s-6.217-3.132-6.217-6.287M135.144,11.946c-.728.914-1.089,2.087-1.089,3.262,0,1.299.432,2.613,1.339,3.547.079-.046.142-.061.233-.096.277-.065.309-.334.309-.772v-4.838c0-.45-.033-.703-.329-.772-.233-.065-.38-.188-.463-.331M141.636,17.945c.175.277.388.45.665.561.753-.911,1.133-2.102,1.133-3.297,0-2.444-1.552-4.884-4.695-4.884-1.245,0-2.237.384-2.995.992h3.304c1.23,0,3.316.046,3.316,2.294,0,1.241-1.038,2.04-2.035,2.305l1.306,2.029ZM141.096,19.516c-.277-.123-.471-.334-.676-.645l-1.914-2.813h-.992v1.829c0,.438.05.669.315.772.78.192.676.949-.085.968h-1.139c.592.288,1.314.442,2.133.442.926,0,1.706-.2,2.357-.554M138.892,12.392c-.657,0-1.378.031-1.378.373v2.187h1.243c1.235,0,1.99-.5,1.99-1.395,0-.822-.755-1.164-1.856-1.164"/>
</svg>