<?xml version="1.0" encoding="UTF-8"?>
<svg id="Layer_1" data-name="Layer 1" xmlns="http://www.w3.org/2000/svg" version="1.1" viewBox="0 0 145 32.5">
  <defs>
    <style>
      .cls-1 {
        fill: #fff;
        stroke-width: 0px;
      }
    </style>
  </defs>
  <path class="cls-1" d="M39,26.8v1.4h-6.5v-1.4c0-.4.2-.6.6-.7,0,0,0,0,.1,0,0,0,.2,0,.4,0,.2,0,.4,0,.7-.1v-7.5c-.3,0-.5,0-.7-.1-.2,0-.3,0-.4,0,0,0-.1,0-.1,0-.4,0-.6-.3-.6-.7v-1.4h4.7v9.8c.3,0,.5,0,.7.1.2,0,.3,0,.3,0,0,0,.1,0,.2,0,.4,0,.6.3.6.7M37.5,13.2c-.1.2-.2.4-.4.6-.2.2-.4.3-.6.4-.2,0-.5.2-.7.2s-.5,0-.7-.2c-.2,0-.4-.2-.6-.4-.2-.2-.3-.4-.4-.6-.1-.2-.2-.4-.2-.7s0-.5.2-.7c0-.2.2-.4.4-.6.2-.2.4-.3.6-.4.2-.1.5-.2.7-.2s.5,0,.7.2c.2,0,.4.2.6.4.2.2.3.4.4.6.1.2.1.5.1.7s0,.5-.1.7"/>
  <path class="cls-1" d="M52.4,28.2h-3.4c-.2,0-.4,0-.5-.1-.1,0-.2-.2-.3-.4l-.2-1.1c-.5.6-1,1-1.7,1.4-.6.3-1.4.5-2.2.5s-1.3-.1-1.8-.4c-.5-.3-1-.7-1.4-1.2-.4-.5-.7-1.2-.9-1.9-.2-.8-.3-1.6-.3-2.6s.1-1.8.4-2.5c.2-.8.6-1.4,1-2,.5-.6,1-1,1.7-1.3.6-.3,1.4-.5,2.2-.5.7,0,1.3.1,1.8.3.5.2.9.5,1.3.9v-4.1c-.3,0-.5,0-.7-.1-.2,0-.3,0-.3,0,0,0-.1,0-.1,0-.4,0-.6-.3-.6-.7v-1.4h4.7v15.2c.3,0,.5,0,.6.1.2,0,.3,0,.3,0,0,0,0,0,.1,0,.4,0,.6.3.6.7v1.4s0,0,0,0ZM47.8,19.2c-.3-.4-.7-.7-1.1-.9-.4-.2-.8-.2-1.3-.2s-.8,0-1.2.2c-.3.2-.7.4-.9.8-.2.3-.4.8-.6,1.3-.1.5-.2,1.1-.2,1.8s0,1.3.2,1.8c.1.5.3.9.5,1.2.2.3.5.5.8.7.3.1.6.2,1,.2.6,0,1.1-.1,1.6-.4.4-.2.8-.6,1.2-1.1v-5.4h0Z"/>
  <path class="cls-1" d="M65.7,28.2h-3.4c-.2,0-.3,0-.5-.1-.1,0-.2-.2-.3-.4l-.2-1.1c-.5.6-1.1,1-1.7,1.4-.6.3-1.4.5-2.2.5s-1.3-.1-1.8-.4c-.5-.3-1-.7-1.4-1.2-.4-.5-.7-1.2-.9-1.9-.2-.8-.3-1.6-.3-2.6s.1-1.8.4-2.5c.3-.8.6-1.4,1.1-2,.4-.6,1-1,1.6-1.3.6-.3,1.4-.5,2.2-.5.7,0,1.3.1,1.7.3.5.2.9.5,1.3.9v-4.1c-.3,0-.5,0-.7-.1-.2,0-.3,0-.4,0,0,0-.1,0-.1,0-.4,0-.6-.3-.6-.7v-1.4h4.7v15.2c.3,0,.5,0,.6.1.2,0,.2,0,.3,0,0,0,.1,0,.1,0,.4,0,.6.3.6.7v1.4h0ZM61.2,19.2c-.3-.4-.7-.7-1.1-.9-.4-.2-.8-.2-1.3-.2s-.8,0-1.2.2c-.4.2-.7.4-.9.8-.3.3-.5.8-.6,1.3-.1.5-.2,1.1-.2,1.8s0,1.3.2,1.8c.1.5.3.9.5,1.2.2.3.5.5.8.7.3.1.6.2,1,.2.6,0,1.1-.1,1.6-.4.4-.2.8-.6,1.2-1.1v-5.4h0Z"/>
  <path class="cls-1" d="M74.2,16.2c.6.2,1.2.6,1.7,1.1.5.5.8,1,1.1,1.7.3.7.4,1.5.4,2.3s0,.4,0,.6c0,.1,0,.3-.1.3,0,0-.1.1-.2.2,0,0-.2,0-.3,0h-7.5c0,1.2.4,2.2,1,2.7.6.6,1.4.9,2.3.9s.9,0,1.2-.2c.3-.1.7-.2.9-.4.3-.1.5-.3.7-.4.2-.1.4-.2.6-.2s.2,0,.3,0c0,0,.2.1.2.2l.9,1.1c-.3.4-.7.7-1.1.9-.4.3-.8.5-1.3.6-.4.2-.9.3-1.3.3-.5,0-.9,0-1.3,0-.8,0-1.6-.1-2.3-.4-.7-.3-1.4-.7-1.9-1.2-.5-.5-1-1.2-1.3-2-.3-.8-.5-1.7-.5-2.8s.1-1.6.4-2.3c.3-.7.6-1.4,1.2-1.9.5-.5,1.1-1,1.8-1.3.7-.3,1.5-.5,2.4-.5s1.5.1,2.1.4M70.1,18.7c-.5.5-.8,1.2-.9,2h5.5c0-.4,0-.7-.1-1.1-.1-.3-.3-.6-.5-.9-.2-.3-.5-.5-.8-.6-.3-.1-.7-.2-1.1-.2-.9,0-1.5.2-2,.7"/>
  <path class="cls-1" d="M92.1,26.8v1.4h-4.7v-7.7c0-.8-.2-1.3-.5-1.7-.3-.4-.9-.6-1.5-.6s-1,.1-1.4.3c-.4.2-.9.5-1.3.9v6.4c.3,0,.5,0,.7.1.2,0,.3,0,.3,0,0,0,.1,0,.1,0,.4,0,.6.3.6.7v1.4h-6.5v-1.4c0-.4.2-.6.6-.7,0,0,0,0,.2,0,0,0,.2,0,.3,0,.2,0,.4,0,.7-.1v-7.5c-.3,0-.5,0-.7-.1-.2,0-.3,0-.3,0,0,0-.1,0-.2,0-.4,0-.6-.3-.6-.7v-1.4h3.6c.4,0,.6.2.7.5l.2,1c.2-.2.5-.5.8-.7.3-.2.6-.4.9-.5.3-.1.6-.2,1-.3.3,0,.7-.1,1.1-.1.7,0,1.2.1,1.8.3.5.2.9.5,1.3.9.3.4.6.9.8,1.5.2.6.3,1.2.3,1.9v5.4c.3,0,.5,0,.7.1.2,0,.3,0,.3,0,0,0,.1,0,.1,0,.4,0,.6.3.6.7"/>
  <path class="cls-1" d="M101.4,11v14.9c.3,0,.5,0,.7.1.2,0,.3,0,.4,0,0,0,.1,0,.1,0,.4,0,.6.3.6.7v1.4h-6.8v-1.4c0-.4.2-.6.6-.7,0,0,0,0,.2,0,0,0,.2,0,.3,0,.2,0,.4,0,.7-.1v-14.9h3.2,0Z"/>
  <path class="cls-1" d="M118.3,26.8v1.4h-2.8c-.3,0-.5,0-.7-.1-.1,0-.3-.2-.4-.5l-.2-.9c-.3.3-.6.5-.9.7-.3.2-.6.4-.9.5-.3.1-.7.2-1,.3-.4,0-.7.1-1.2.1s-1,0-1.4-.2c-.4-.1-.8-.4-1.1-.6-.3-.3-.6-.6-.7-1-.2-.4-.2-.9-.2-1.4s.1-.9.4-1.4c.2-.4.6-.8,1.2-1.2.6-.4,1.3-.7,2.2-.9.9-.2,2.1-.3,3.5-.3v-.7c0-.8-.2-1.4-.5-1.8-.3-.4-.8-.6-1.5-.6s-.9,0-1.2.2c-.3.1-.6.2-.8.4-.2.1-.4.3-.6.4-.2.1-.4.2-.6.2s-.4,0-.5-.1c-.1-.1-.3-.2-.3-.4l-.5-.9c1.4-1.3,3.1-1.9,5.1-1.9s1.3.1,1.9.4c.6.2,1,.6,1.4,1,.4.4.7.9.9,1.5.2.6.3,1.2.3,1.9v5.4c.3,0,.5,0,.6.1.1,0,.2,0,.3,0,.4,0,.6.3.6.8M114,23c-.9,0-1.6,0-2.1.2-.6.1-1,.2-1.4.4-.3.2-.6.4-.7.6-.1.2-.2.5-.2.7,0,.5.1.9.5,1.1.3.2.7.3,1.2.3s.6,0,.8,0c.3,0,.5-.1.7-.2.2-.1.4-.2.7-.4.2-.2.4-.3.6-.6v-2h0Z"/>
  <path class="cls-1" d="M125.6,16c.5.1.9.3,1.3.5h3.5v1.1c0,.2,0,.3-.1.4-.1.1-.3.2-.5.2l-1.1.2c0,.2.1.4.2.7,0,.2,0,.5,0,.7,0,.6-.1,1.1-.4,1.6-.2.5-.6.9-1,1.3-.4.3-.9.6-1.5.8-.6.2-1.2.3-1.9.3s-.9,0-1.3-.1c-.4.2-.6.5-.6.8s.1.4.3.5c.2.1.5.2.9.2.4,0,.8,0,1.3,0,.5,0,.9,0,1.4,0,.5,0,1,.1,1.4.2.5.1.9.3,1.2.5.4.2.7.5.9.9.2.4.3.8.3,1.4s-.1,1.1-.4,1.6c-.3.5-.7,1-1.1,1.3-.5.4-1.1.7-1.9,1-.7.2-1.5.4-2.5.4s-1.7,0-2.4-.3c-.7-.2-1.3-.4-1.7-.7-.5-.3-.8-.6-1-1-.2-.4-.3-.8-.3-1.2s.2-1,.5-1.4c.4-.4.8-.7,1.5-.9-.3-.2-.5-.4-.7-.7-.2-.3-.3-.6-.3-1.1s0-.4,0-.6c0-.2.2-.4.3-.6.1-.2.3-.4.5-.5.2-.2.4-.3.7-.5-.6-.3-1.1-.8-1.5-1.3-.3-.6-.5-1.2-.5-1.9s.1-1.2.4-1.6c.2-.5.6-.9,1-1.2.4-.4.9-.6,1.5-.8.6-.2,1.2-.3,1.9-.3s1,0,1.5.2M127.2,28.2c-.1-.1-.3-.3-.6-.3-.2,0-.5-.2-.9-.2-.3,0-.7,0-1,0-.4,0-.8,0-1.1,0-.4,0-.8,0-1.1-.1-.3.2-.6.4-.8.7-.2.2-.3.5-.3.8s0,.4.2.6c.1.2.3.4.5.5.2.1.5.2.9.3.4,0,.8.1,1.4.1s1,0,1.4-.1c.4,0,.7-.2,1-.3.3-.1.4-.3.6-.5.1-.2.2-.4.2-.7s0-.4-.2-.6M125.1,21.7c.3,0,.5-.2.7-.4.2-.2.3-.4.4-.6,0-.2.1-.5.1-.8,0-.6-.2-1.1-.5-1.4-.4-.4-.9-.5-1.6-.5s-1.3.2-1.6.5c-.4.3-.5.8-.5,1.4s0,.5.1.8c0,.3.2.5.4.6.2.2.4.3.7.4.3,0,.6.2.9.2s.7,0,1-.2"/>
  <path class="cls-1" d="M10.6,5H3v2.8c0,0,7.5,0,7.5,0,0-.9,0-1.8.1-2.8"/>
  <path class="cls-1" d="M20.2,5c0,.3,0,.5,0,.8,0,.7,0,1.4,0,2h7.6c0-.9,0-1.8.1-2.8h-7.7Z"/>
  <path class="cls-1" d="M23.2,10.2H3.1l-.2,2.8h24.8c0-.9,0-1.8.1-2.8h-4.6,0Z"/>
  <path class="cls-1" d="M22.9,15.4H3.1l-.2,2.8h24.8c0-.9,0-1.8.1-2.8,0,0-4.9,0-4.9,0Z"/>
  <path class="cls-1" d="M12.9,0c-2.6,0-4.4,0-5.5,0S4.1,0,1.5,0v1.9c0,.2,0,.5,0,.7h11.2C12.7,1.8,12.8.9,12.9,0"/>
  <path class="cls-1" d="M30.5,0c-3.1,0-5,0-5.6,0h-6.4c0,.9,0,1.5,0,1.9s0,.4,0,.7h11.7c0-.8.2-1.7.2-2.6"/>
  <polygon class="cls-1" points="10 20.5 2.3 20.5 2.1 23.4 9.9 23.4 10 20.5"/>
  <path class="cls-1" d="M19.6,20.5c0,1,0,1.9-.1,2.8h7.7c0-1,0-1.9,0-2.8h-7.6Z"/>
  <path class="cls-1" d="M17,28.3c3.3,0,5.4,0,6.3,0h5.9c0-.7.1-1.9.2-2.6h-11.9c0,.7-.3,2-.4,2.6"/>
  <path class="cls-1" d="M5.5,28.2h6s.2-2.6.2-2.6H.3l-.3,2.6c2.9,0,4.7,0,5.5,0"/>
  <path class="cls-1" d="M109.4,9.1c0,.3-.2.6-.6.6h-14.4c-.3,0-.6-.2-.6-.5v-4.7c0-.3.2-.5.6-.5h14.4c.3,0,.6.2.6.5v4.7Z"/>
  <path class="cls-1" d="M91,8.1c0,.4.2.8.5.8h1.2c.3,0,.5-.3.5-.8v-2.7c0-.4-.2-.7-.5-.7h-1.2c-.3,0-.5.3-.5.8v2.7s0,0,0,0Z"/>
  <path class="cls-1" d="M90.2,10.3c0,.3-.2.5-.6.5h-1.3c-.3,0-.6-.2-.6-.5V3.3c0-.3.2-.5.5-.5h1.3c.3,0,.6.2.6.5v7Z"/>
  <path class="cls-1" d="M132.5,15.2c0-3.1,2.1-6.3,6.2-6.3s6.3,3.2,6.3,6.3-2.1,6.3-6.3,6.3-6.2-3.1-6.2-6.3M135.1,11.9c-.7.9-1.1,2.1-1.1,3.3s.4,2.6,1.3,3.5c0,0,.1,0,.2,0,.3,0,.3-.3.3-.8v-4.8c0-.4,0-.7-.3-.8-.2,0-.4-.2-.5-.3M141.6,17.9c.2.3.4.5.7.6.8-.9,1.1-2.1,1.1-3.3,0-2.4-1.6-4.9-4.7-4.9s-2.2.4-3,1h3.3c1.2,0,3.3,0,3.3,2.3s-1,2-2,2.3l1.3,2h0ZM141.1,19.5c-.3-.1-.5-.3-.7-.6l-1.9-2.8h-1v1.8c0,.4,0,.7.3.8.8.2.7.9,0,1h-1.1c.6.3,1.3.4,2.1.4s1.7-.2,2.4-.6M138.9,12.4c-.7,0-1.4,0-1.4.4v2.2h1.2c1.2,0,2-.5,2-1.4s-.8-1.2-1.9-1.2"/>
</svg>