<svg width="25" height="25" viewBox="0 0 25 25" fill="none" xmlns="http://www.w3.org/2000/svg">
<circle cx="12.5" cy="12.5" r="12.5" fill="#015A6A" fill-opacity="0.2"/>
<path d="M10.0254 8.19507H6.39864L6.36719 9.52503H9.96246C9.9794 9.09935 10.0012 8.65442 10.0278 8.19507H10.0254Z" fill="#015A6A"/>
<path d="M14.5934 8.19507C14.591 8.31532 14.5861 8.44038 14.5837 8.57265C14.574 8.91897 14.5644 9.23403 14.5547 9.52503H18.1524C18.1742 9.10416 18.1983 8.66164 18.2274 8.19507H14.5958H14.5934Z" fill="#015A6A"/>
<path d="M16.0305 10.6384H6.44955L6.36487 11.9684H18.1499C18.1717 11.5475 18.1959 11.105 18.2249 10.6384H16.0281H16.0305Z" fill="#015A6A"/>
<path d="M15.8902 13.0818H6.44955L6.36487 14.4117H18.1499C18.1717 13.9885 18.1959 13.5484 18.2249 13.0818H15.8902Z" fill="#015A6A"/>
<path d="M11.1306 5.83325C9.90394 5.84528 9.04262 5.85249 8.54663 5.85249C7.91274 5.85249 6.95949 5.84528 5.68445 5.83325L5.69655 6.75436C5.69655 6.86018 5.69655 6.97081 5.69413 7.07904H11.0096C11.0483 6.675 11.0895 6.25894 11.133 5.83325H11.1306Z" fill="#015A6A"/>
<path d="M19.4709 5.83325C17.9975 5.84528 17.1047 5.85249 16.7902 5.85249L13.7659 5.83325C13.7828 6.26375 13.7925 6.56437 13.7925 6.73753C13.7925 6.82892 13.7925 6.94436 13.7876 7.07904H19.3572C19.3935 6.6774 19.4322 6.26134 19.4709 5.83325Z" fill="#015A6A"/>
<path d="M9.73278 15.5278H6.09396L6.00928 16.8578H9.69649L9.73278 15.5278Z" fill="#015A6A"/>
<path d="M14.3075 15.5278C14.2881 15.9872 14.2664 16.4297 14.2397 16.8578H17.9052C17.91 16.3984 17.9149 15.9535 17.9221 15.5278H14.3075Z" fill="#015A6A"/>
<path d="M13.0539 19.1665C14.6314 19.1545 15.6282 19.1473 16.0468 19.1473L18.8364 19.1665C18.8364 18.8346 18.9017 18.2454 18.9041 17.9255H13.2402C13.2015 18.2622 13.0975 18.8515 13.0515 19.1665H13.0539Z" fill="#015A6A"/>
<path d="M7.60815 19.1473L10.4365 19.1665L10.5405 17.9255H5.15242L5 19.1665C6.38149 19.1545 7.25007 19.1473 7.60815 19.1473Z" fill="#015A6A"/>
</svg>
