<svg width="580" height="149" viewBox="0 0 580 149" fill="none" xmlns="http://www.w3.org/2000/svg">
<path d="M113.53 78.06V82.11H108.31H99.8001H94.5801V78.06C94.5801 76.87 95.1501 76.15 96.3001 75.9C96.4001 75.88 96.5401 75.85 96.7301 75.82C96.9201 75.79 97.2601 75.72 97.7601 75.63C98.2501 75.54 98.9301 75.42 99.8001 75.27V53.58C98.9401 53.43 98.2601 53.3 97.7601 53.22C97.2601 53.13 96.9201 53.07 96.7301 53.04C96.5401 53 96.4001 52.98 96.3001 52.96C95.1501 52.71 94.5801 51.99 94.5801 50.8V46.75H99.8001H108.31V75.28C109.17 75.43 109.85 75.56 110.35 75.65C110.85 75.74 111.19 75.8 111.38 75.83C111.57 75.86 111.71 75.89 111.81 75.91C112.96 76.15 113.53 76.87 113.53 78.06ZM109.14 38.51C108.84 39.15 108.44 39.71 107.95 40.2C107.46 40.68 106.88 41.07 106.21 41.36C105.54 41.65 104.83 41.79 104.07 41.79C103.33 41.79 102.64 41.65 101.99 41.36C101.34 41.07 100.76 40.69 100.28 40.2C99.8001 39.72 99.4101 39.15 99.1201 38.51C98.8301 37.86 98.6901 37.18 98.6901 36.44C98.6901 35.68 98.8301 34.97 99.1201 34.3C99.4101 33.63 99.7901 33.06 100.28 32.58C100.76 32.1 101.33 31.71 101.99 31.42C102.64 31.13 103.34 30.99 104.07 30.99C104.83 30.99 105.54 31.13 106.21 31.42C106.88 31.71 107.46 32.09 107.95 32.58C108.45 33.06 108.84 33.64 109.14 34.3C109.44 34.96 109.59 35.68 109.59 36.44C109.58 37.18 109.43 37.86 109.14 38.51Z" fill="#2C7EC2"/>
<path d="M152.43 81.97H147.62H142.42C141.87 81.97 141.4 81.84 141 81.59C140.61 81.34 140.36 80.94 140.24 80.42L139.55 77.15C138.13 78.78 136.49 80.1 134.64 81.11C132.79 82.12 130.63 82.62 128.14 82.62C126.21 82.62 124.45 82.22 122.85 81.42C121.25 80.62 119.88 79.45 118.71 77.92C117.55 76.4 116.65 74.51 116.02 72.27C115.39 70.03 115.07 67.46 115.07 64.57C115.07 61.93 115.43 59.48 116.14 57.22C116.85 54.97 117.87 53.02 119.19 51.36C120.51 49.7 122.11 48.41 123.98 47.48C125.85 46.55 127.95 46.08 130.27 46.09C132.27 46.09 133.96 46.39 135.36 47C136.75 47.61 138 48.46 139.1 49.54V37.73C138.24 37.58 137.56 37.45 137.06 37.37C136.56 37.28 136.22 37.22 136.03 37.18C135.84 37.15 135.7 37.12 135.6 37.1C134.45 36.86 133.87 36.14 133.87 34.94V30.89H139.09H147.6V75.21C148.34 75.34 148.93 75.44 149.36 75.52C149.8 75.6 150.1 75.65 150.27 75.69C150.44 75.72 150.58 75.75 150.69 75.76C151.84 76.01 152.41 76.73 152.41 77.92L152.43 81.97ZM139.11 55.77C138.14 54.58 137.1 53.74 135.96 53.28C134.82 52.81 133.6 52.57 132.29 52.57C131 52.57 129.84 52.81 128.79 53.3C127.75 53.78 126.86 54.51 126.14 55.5C125.42 56.49 124.86 57.74 124.47 59.25C124.08 60.75 123.88 62.53 123.88 64.57C123.88 66.63 124.05 68.39 124.38 69.82C124.71 71.26 125.19 72.42 125.81 73.32C126.43 74.22 127.18 74.87 128.07 75.29C128.95 75.7 129.96 75.91 131.09 75.91C132.86 75.91 134.37 75.54 135.62 74.79C136.88 74.04 138.04 72.99 139.12 71.64V55.77H139.11Z" fill="#2C7EC2"/>
<path d="M191.24 81.97H186.43H181.22C180.67 81.97 180.2 81.84 179.81 81.59C179.42 81.34 179.17 80.94 179.05 80.42L178.36 77.15C176.94 78.78 175.3 80.1 173.45 81.11C171.6 82.12 169.43 82.62 166.95 82.62C165.02 82.62 163.26 82.22 161.66 81.42C160.06 80.62 158.68 79.45 157.52 77.92C156.36 76.4 155.46 74.51 154.83 72.27C154.2 70.03 153.88 67.46 153.88 64.57C153.88 61.93 154.24 59.48 154.95 57.22C155.66 54.97 156.68 53.02 158 51.36C159.32 49.7 160.92 48.41 162.79 47.48C164.66 46.55 166.76 46.08 169.08 46.09C171.08 46.09 172.77 46.39 174.16 47C175.55 47.61 176.8 48.46 177.9 49.54V37.73C177.04 37.58 176.36 37.45 175.87 37.37C175.37 37.28 175.03 37.22 174.84 37.18C174.65 37.15 174.51 37.12 174.41 37.1C173.26 36.86 172.68 36.14 172.68 34.94V30.89H177.9H186.42V75.21C187.16 75.34 187.74 75.44 188.18 75.52C188.62 75.6 188.92 75.65 189.09 75.69C189.26 75.72 189.39 75.75 189.5 75.76C190.65 76.01 191.23 76.73 191.23 77.92V81.97H191.24ZM177.91 55.77C176.95 54.58 175.9 53.74 174.76 53.28C173.62 52.81 172.4 52.57 171.09 52.57C169.8 52.57 168.64 52.81 167.59 53.3C166.55 53.78 165.66 54.51 164.94 55.5C164.22 56.49 163.66 57.74 163.27 59.25C162.88 60.75 162.68 62.53 162.68 64.57C162.68 66.63 162.85 68.39 163.18 69.82C163.52 71.26 164 72.42 164.62 73.32C165.24 74.22 165.99 74.87 166.88 75.29C167.77 75.7 168.77 75.91 169.9 75.91C171.67 75.91 173.18 75.54 174.43 74.79C175.68 74.04 176.85 72.99 177.93 71.64V55.77H177.91Z" fill="#2C7EC2"/>
<path d="M215.85 47.2599C217.73 47.9699 219.34 49.01 220.69 50.38C222.04 51.75 223.1 53.43 223.86 55.41C224.62 57.4 225 59.6699 225 62.2199C225 62.8699 224.97 63.4 224.91 63.82C224.85 64.25 224.75 64.58 224.6 64.82C224.45 65.06 224.25 65.24 223.99 65.34C223.74 65.44 223.42 65.49 223.03 65.49H201.18C201.43 69.12 202.41 71.78 204.11 73.49C205.81 75.19 208.06 76.04 210.87 76.04C212.25 76.04 213.44 75.88 214.44 75.56C215.44 75.23 216.32 74.88 217.06 74.49C217.81 74.1 218.46 73.7399 219.03 73.4199C219.59 73.0999 220.14 72.9399 220.67 72.9399C221.01 72.9399 221.31 73.01 221.57 73.15C221.82 73.29 222.04 73.49 222.22 73.74L224.7 76.84C223.76 77.94 222.7 78.8699 221.53 79.6099C220.36 80.3599 219.13 80.96 217.86 81.4C216.59 81.85 215.29 82.17 213.96 82.35C212.64 82.53 211.36 82.62 210.12 82.62C207.66 82.62 205.37 82.21 203.26 81.4C201.15 80.59 199.31 79.38 197.75 77.79C196.19 76.19 194.96 74.2099 194.06 71.8599C193.16 69.5099 192.71 66.78 192.71 63.68C192.71 61.26 193.1 58.9999 193.88 56.8699C194.66 54.7399 195.78 52.89 197.24 51.32C198.7 49.74 200.48 48.4899 202.59 47.5799C204.69 46.6599 207.06 46.2 209.71 46.2C211.92 46.2 213.97 46.5499 215.85 47.2599ZM204.04 54.4C202.64 55.8 201.74 57.7899 201.35 60.3699H217.35C217.35 59.2599 217.2 58.23 216.9 57.25C216.6 56.27 216.14 55.41 215.52 54.68C214.9 53.94 214.12 53.3699 213.18 52.9399C212.23 52.5099 211.13 52.31 209.87 52.31C207.38 52.3 205.44 52.99 204.04 54.4Z" fill="#2C7EC2"/>
<path d="M268.01 78.06V82.1099H262.79H254.28V59.6C254.28 57.44 253.78 55.77 252.78 54.59C251.78 53.4 250.28 52.81 248.28 52.81C246.81 52.81 245.43 53.14 244.14 53.81C242.85 54.47 241.63 55.38 240.49 56.53V75.2799C241.35 75.4299 242.03 75.5499 242.52 75.6399C243.02 75.7299 243.36 75.79 243.55 75.82C243.74 75.86 243.88 75.88 243.98 75.9C245.13 76.15 245.71 76.86 245.71 78.06V82.1099H240.49H231.98H226.75V78.06C226.75 76.87 227.33 76.15 228.48 75.9C228.58 75.88 228.72 75.86 228.91 75.82C229.09 75.79 229.44 75.7299 229.93 75.6399C230.43 75.5499 231.11 75.4299 231.97 75.2799V53.5799C231.11 53.4299 230.43 53.31 229.93 53.22C229.43 53.13 229.09 53.07 228.91 53.04C228.72 53 228.58 52.98 228.48 52.96C227.33 52.71 226.75 51.9899 226.75 50.7999V46.75H231.98H237.18C238.29 46.75 239.01 47.2699 239.35 48.2999L239.93 51.09C240.64 50.35 241.4 49.69 242.19 49.09C242.98 48.49 243.82 47.97 244.71 47.54C245.6 47.1 246.54 46.77 247.55 46.54C248.57 46.31 249.67 46.2 250.86 46.2C252.79 46.2 254.5 46.52 255.99 47.18C257.48 47.83 258.73 48.7599 259.73 49.9399C260.73 51.1199 261.49 52.54 262.01 54.18C262.53 55.82 262.79 57.63 262.78 59.61L262.79 75.29C263.65 75.44 264.33 75.56 264.83 75.65C265.33 75.74 265.67 75.7999 265.86 75.8299C266.05 75.8699 266.19 75.8899 266.29 75.91C267.44 76.15 268.01 76.87 268.01 78.06Z" fill="#2C7EC2"/>
<path d="M295.06 32.01V75.27C295.92 75.42 296.6 75.55 297.1 75.63C297.6 75.72 297.94 75.78 298.13 75.82C298.32 75.85 298.46 75.88 298.56 75.9C299.71 76.15 300.29 76.86 300.29 78.06V82.11H295.07H285.8H280.58V78.06C280.58 76.87 281.16 76.15 282.31 75.9C282.41 75.88 282.56 75.85 282.74 75.82C282.93 75.79 283.27 75.72 283.77 75.63C284.27 75.54 284.95 75.42 285.81 75.27V32.01H295.06Z" fill="#2C7EC2"/>
<path d="M344.16 77.99V82.04H339.88H338.94H336.05C335.24 82.04 334.61 81.92 334.15 81.68C333.69 81.44 333.35 80.95 333.12 80.22L332.37 77.7C331.47 78.5 330.59 79.21 329.73 79.82C328.87 80.43 327.98 80.94 327.06 81.36C326.14 81.77 325.16 82.08 324.13 82.29C323.1 82.5 321.94 82.6 320.68 82.6C319.19 82.6 317.81 82.4 316.54 82C315.28 81.59 314.19 80.99 313.28 80.18C312.37 79.37 311.67 78.37 311.16 77.17C310.66 75.97 310.41 74.58 310.41 72.98C310.41 71.64 310.76 70.32 311.46 69.02C312.16 67.71 313.33 66.54 314.96 65.49C316.59 64.44 318.76 63.57 321.48 62.88C324.19 62.19 327.56 61.85 331.58 61.85V59.76C331.58 57.37 331.08 55.61 330.08 54.46C329.08 53.32 327.63 52.75 325.72 52.75C324.34 52.75 323.2 52.91 322.27 53.23C321.35 53.55 320.55 53.91 319.88 54.32C319.2 54.72 318.58 55.08 318 55.41C317.43 55.73 316.8 55.89 316.11 55.89C315.53 55.89 315.04 55.75 314.62 55.44C314.21 55.14 313.87 54.78 313.62 54.34L312.07 51.61C316.14 47.89 321.05 46.03 326.79 46.03C328.85 46.03 330.7 46.37 332.32 47.05C333.94 47.72 335.31 48.67 336.44 49.88C337.57 51.08 338.42 52.53 339.01 54.21C339.59 55.88 339.89 57.72 339.89 59.72V75.39C340.67 75.53 341.28 75.64 341.71 75.72C342.14 75.8 342.38 75.84 342.45 75.86C343.59 76.08 344.16 76.8 344.16 77.99ZM331.57 67.05C329.09 67.05 327.01 67.2 325.35 67.51C323.68 67.82 322.34 68.22 321.34 68.71C320.33 69.2 319.61 69.76 319.18 70.41C318.76 71.06 318.54 71.76 318.54 72.53C318.54 74.04 318.98 75.11 319.87 75.76C320.76 76.4 321.91 76.73 323.34 76.73C324.21 76.73 325.02 76.65 325.75 76.49C326.49 76.33 327.18 76.09 327.84 75.77C328.49 75.46 329.13 75.07 329.73 74.6C330.34 74.14 330.96 73.59 331.57 72.96V67.05Z" fill="#2C7EC2"/>
<path d="M365.45 46.5901C366.78 46.9001 368 47.3601 369.1 47.9501H379.27V51.1201C379.27 51.6501 379.13 52.0601 378.86 52.3701C378.58 52.6701 378.12 52.8701 377.45 52.9901L374.28 53.58C374.51 54.17 374.69 54.8101 374.81 55.4701C374.94 56.1401 375 56.8401 375 57.5701C375 59.3101 374.65 60.8901 373.95 62.3101C373.25 63.7301 372.28 64.93 371.06 65.92C369.83 66.9 368.37 67.6701 366.68 68.2101C364.99 68.7501 363.16 69.0201 361.18 69.0201C359.85 69.0201 358.54 68.89 357.28 68.64C356.18 69.31 355.63 70.0501 355.63 70.8801C355.63 71.5901 355.96 72.1101 356.61 72.4501C357.26 72.7801 358.13 73.0201 359.2 73.1601C360.27 73.3001 361.48 73.38 362.84 73.42C364.2 73.46 365.59 73.5301 367.01 73.6501C368.43 73.7601 369.82 73.9701 371.18 74.2601C372.54 74.5401 373.75 75.0001 374.81 75.6201C375.88 76.2401 376.74 77.0801 377.4 78.1501C378.05 79.2201 378.38 80.5901 378.38 82.2701C378.38 83.8301 377.99 85.3501 377.22 86.8201C376.45 88.2901 375.33 89.6 373.88 90.75C372.42 91.9001 370.63 92.8201 368.52 93.5201C366.41 94.2201 363.99 94.5701 361.28 94.5701C358.59 94.5701 356.26 94.3101 354.28 93.7901C352.3 93.2701 350.66 92.5801 349.37 91.7201C348.08 90.8601 347.1 89.8701 346.46 88.7301C345.81 87.6101 345.5 86.4401 345.5 85.2201C345.5 83.5601 346 82.1701 347.01 81.0501C348.02 79.9201 349.42 79.0201 351.21 78.3601C350.34 77.8801 349.64 77.2401 349.11 76.4301C348.58 75.6301 348.32 74.59 348.32 73.3001C348.32 72.7701 348.41 72.2201 348.6 71.6601C348.79 71.1001 349.07 70.5401 349.45 69.9901C349.82 69.4301 350.3 68.92 350.87 68.42C351.45 67.92 352.12 67.4801 352.91 67.0901C351.12 66.1301 349.71 64.8401 348.69 63.2301C347.67 61.6201 347.16 59.74 347.16 57.58C347.16 55.83 347.51 54.2501 348.21 52.8401C348.91 51.4301 349.89 50.2201 351.14 49.2301C352.39 48.2301 353.87 47.4601 355.58 46.9401C357.29 46.4101 359.16 46.1501 361.18 46.1501C362.7 46.1201 364.12 46.2801 365.45 46.5901ZM369.9 82.0101C369.49 81.5801 368.92 81.2301 368.21 80.9901C367.49 80.7501 366.66 80.5701 365.71 80.4501C364.76 80.3401 363.75 80.2501 362.68 80.1901C361.61 80.1301 360.51 80.0801 359.37 80.0201C358.23 79.9601 357.14 79.8701 356.08 79.7301C355.12 80.2601 354.34 80.89 353.75 81.6101C353.16 82.34 352.87 83.1701 352.87 84.1101C352.87 84.73 353.03 85.3101 353.34 85.8501C353.65 86.3901 354.14 86.8601 354.82 87.25C355.5 87.64 356.38 87.95 357.46 88.17C358.54 88.39 359.86 88.4901 361.43 88.4901C363.01 88.4901 364.38 88.3701 365.53 88.1301C366.68 87.8901 367.63 87.5601 368.38 87.1301C369.13 86.7101 369.67 86.2001 370.02 85.6201C370.36 85.0301 370.54 84.4001 370.54 83.7101C370.52 83.0101 370.31 82.4401 369.9 82.0101ZM363.93 63.14C364.71 62.85 365.36 62.4501 365.88 61.9501C366.4 61.4401 366.79 60.8401 367.05 60.1201C367.32 59.4101 367.45 58.6301 367.45 57.7801C367.45 56.0301 366.93 54.6501 365.88 53.6201C364.83 52.6001 363.26 52.0901 361.18 52.0901C359.09 52.0901 357.52 52.6001 356.47 53.6201C355.42 54.6401 354.9 56.0301 354.9 57.7801C354.9 58.6101 355.03 59.3801 355.3 60.0901C355.57 60.8001 355.95 61.4201 356.47 61.9301C356.99 62.4501 357.64 62.85 358.43 63.14C359.22 63.43 360.14 63.5701 361.17 63.5701C362.24 63.5701 363.16 63.42 363.93 63.14Z" fill="#2C7EC2"/>
<path d="M30.7999 14.5601H8.55986L8.35986 22.7601H30.3899C30.5099 20.1301 30.6399 17.4001 30.7999 14.5601Z" fill="#2C7EC2"/>
<path d="M58.79 14.5601C58.78 15.3001 58.75 16.0701 58.73 16.8901C58.67 19.0201 58.61 20.9701 58.54 22.7601H80.59C80.72 20.1601 80.88 17.4301 81.04 14.5601H58.79Z" fill="#2C7EC2"/>
<path d="M67.5999 29.63H58.7999H8.89988L8.37988 37.83H58.5599H66.5599H80.6199C80.7499 35.23 80.9099 32.5 81.0699 29.63H67.5999Z" fill="#2C7EC2"/>
<path d="M66.7399 44.7H58.7899H8.87986L8.35986 52.9H58.5399H65.6999H80.5999C80.7299 50.3 80.8899 47.57 81.0499 44.7H66.7399Z" fill="#2C7EC2"/>
<path d="M37.5799 0C30.0599 0.08 24.7799 0.119995 21.7399 0.119995C17.8599 0.119995 12.0099 0.08 4.18994 0L4.25994 5.68999C4.25994 6.33999 4.24994 7.01999 4.23994 7.68999H36.8199C37.0599 5.18999 37.3099 2.64 37.5799 0Z" fill="#2C7EC2"/>
<path d="M88.6902 0C79.6602 0.08 74.1902 0.119995 72.2602 0.119995L53.7202 0C53.8302 2.65 53.8802 4.50999 53.8802 5.57999C53.8802 6.13999 53.8702 6.84999 53.8502 7.68999H87.9902C88.2102 5.20999 88.4502 2.65 88.6902 0Z" fill="#2C7EC2"/>
<path d="M28.9999 59.77H6.69994L6.18994 67.97H28.7799L28.9999 59.77Z" fill="#2C7EC2"/>
<path d="M57.0401 59.77C56.9201 62.6 56.7801 65.33 56.6201 67.97H79.0901C79.1201 65.14 79.1501 62.4 79.1901 59.77H57.0401Z" fill="#2C7EC2"/>
<path d="M49.3701 82.2C59.0401 82.12 65.1501 82.08 67.7201 82.08L84.8101 82.2C84.8101 80.15 85.2101 76.51 85.2301 74.55H50.5201C50.2901 76.62 49.6401 80.27 49.3701 82.2Z" fill="#2C7EC2"/>
<path d="M15.98 82.09L33.31 82.21L33.94 74.56H0.940001L0 82.21C8.46 82.12 13.79 82.09 15.98 82.09Z" fill="#2C7EC2"/>
<path d="M318.25 26.41C318.25 27.29 317.51 28.01 316.6 28.01L274.7 28.07C273.79 28.07 273.05 27.36 273.05 26.48L273.03 12.94C273.03 12.06 273.76 11.34 274.67 11.34L316.57 11.28C317.48 11.28 318.22 12 318.22 12.88L318.25 26.41Z" fill="#2C7EC2"/>
<path d="M264.6 23.64C264.6 24.86 265.25 25.85 266.05 25.84H269.54C270.34 25.84 270.99 24.85 270.99 23.63L270.98 15.72C270.98 14.5 270.33 13.52 269.53 13.52H266.04C265.25 13.52 264.59 14.51 264.59 15.73L264.6 23.64Z" fill="#2C7EC2"/>
<path d="M262.37 29.88C262.37 30.76 261.64 31.48 260.73 31.48H256.89C255.98 31.48 255.24 30.77 255.24 29.89L255.21 9.57998C255.21 8.69998 255.95 7.97998 256.86 7.97998H260.7C261.61 7.97998 262.35 8.68998 262.35 9.57998L262.37 29.88Z" fill="#2C7EC2"/>
<path d="M287.62 110.78V119.25H285.25C284.7 119.25 284.36 118.96 284.24 118.39C284.21 118.24 284.1 117 283.9 114.65H269.95V126.92H283.27V130.79H269.95V142.29C270.36 142.37 271.29 142.56 272.74 142.85C273.23 142.95 273.47 143.25 273.47 143.76V145.86H261.65V143.76C261.65 143.25 261.89 142.95 262.38 142.85L265.17 142.29V114.36C263.6 114.05 262.67 113.86 262.38 113.8C261.89 113.7 261.65 113.4 261.65 112.89V110.79H265.17H287.62V110.78Z" fill="#2C7EC2"/>
<path d="M304.71 121.58C306.17 122.18 307.41 123.04 308.43 124.15C309.45 125.25 310.24 126.6 310.78 128.18C311.33 129.75 311.6 131.51 311.6 133.45C311.6 135.41 311.32 137.17 310.78 138.74C310.24 140.31 309.45 141.64 308.43 142.75C307.41 143.86 306.17 144.71 304.71 145.31C303.25 145.91 301.61 146.2 299.8 146.2C297.99 146.2 296.35 145.9 294.89 145.31C293.43 144.72 292.19 143.86 291.16 142.75C290.13 141.64 289.34 140.31 288.79 138.74C288.24 137.17 287.96 135.41 287.96 133.45C287.96 131.51 288.24 129.75 288.79 128.18C289.34 126.6 290.13 125.26 291.16 124.15C292.19 123.04 293.43 122.18 294.89 121.58C296.35 120.97 297.99 120.67 299.8 120.67C301.61 120.67 303.25 120.97 304.71 121.58ZM305.29 140.34C306.5 138.7 307.1 136.41 307.1 133.47C307.1 130.52 306.5 128.22 305.29 126.57C304.08 124.92 302.25 124.09 299.8 124.09C298.56 124.09 297.48 124.3 296.57 124.73C295.65 125.16 294.89 125.77 294.28 126.57C293.67 127.37 293.21 128.35 292.91 129.52C292.61 130.69 292.46 132 292.46 133.47C292.46 134.94 292.61 136.25 292.91 137.41C293.21 138.57 293.67 139.54 294.28 140.33C294.89 141.12 295.65 141.73 296.57 142.15C297.48 142.57 298.56 142.78 299.8 142.78C302.25 142.8 304.08 141.98 305.29 140.34Z" fill="#2C7EC2"/>
<path d="M329.57 120.63C330.84 120.63 331.97 120.92 332.97 121.51L332.41 124.76C332.3 125.17 332.09 125.37 331.78 125.37C331.47 125.37 331.08 125.29 330.6 125.14C330.13 124.99 329.47 124.91 328.62 124.91C325.78 124.91 323.66 126.63 322.25 130.07V142.29C322.66 142.37 323.59 142.56 325.04 142.85C325.53 142.95 325.78 143.25 325.78 143.76V145.86H314.37V143.76C314.37 143.25 314.61 142.95 315.11 142.85L317.9 142.29V124.64C316.34 124.33 315.41 124.14 315.11 124.08C314.62 123.98 314.37 123.68 314.37 123.17V121.07H317.89H320.39C320.86 121.07 321.19 121.16 321.37 121.34C321.55 121.51 321.67 121.83 321.74 122.27L322.03 126.14C323.84 122.46 326.35 120.63 329.57 120.63Z" fill="#2C7EC2"/>
<path d="M385.67 43.67C385.67 34.57 391.72 25.37 403.77 25.37C415.87 25.37 421.97 34.57 421.97 43.67C421.97 52.87 415.87 61.97 403.77 61.97C391.72 61.97 385.67 52.87 385.67 43.67ZM393.29 34.26C391.2 36.9 390.14 40.31 390.14 43.72C390.14 47.53 391.41 51.35 394.05 54.04C394.25 53.94 394.46 53.89 394.71 53.78C395.52 53.58 395.63 52.81 395.63 51.55V37.47C395.63 36.15 395.53 35.44 394.66 35.23C394.01 35.02 393.55 34.67 393.29 34.26ZM412.21 51.7C412.72 52.51 413.33 53.02 414.14 53.33C416.33 50.68 417.44 47.23 417.44 43.72C417.44 36.66 412.92 29.54 403.77 29.54C400.16 29.54 397.26 30.66 395.08 32.44H404.69C408.25 32.44 414.35 32.54 414.35 39.1C414.35 42.71 411.3 45.05 408.4 45.81L412.21 51.7ZM410.63 56.28C409.82 55.92 409.26 55.31 408.65 54.4L403.11 46.22H400.21V51.56C400.21 52.83 400.36 53.49 401.13 53.79C403.42 54.35 403.11 56.54 400.88 56.59H397.58C399.31 57.45 401.39 57.91 403.78 57.91C406.46 57.9 408.75 57.29 410.63 56.28ZM404.22 35.53C402.29 35.53 400.2 35.63 400.2 36.65V43H403.81C407.42 43 409.61 41.53 409.61 38.93C409.61 36.55 407.43 35.53 404.22 35.53Z" fill="#2C7EC2"/>
<path d="M530.39 70.16C530.76 69.4 529.73 68.01 527.9 66.33L530.53 61.87C530.55 61.83 530.58 61.79 530.61 61.76L535 56.83C535.41 56.37 535.08 55.64 534.46 55.64L529.5 55.66C529.34 55.66 529.19 55.71 529.07 55.81L521.74 61.51C517.17 58.32 511.84 55.12 508.4 53.44C508.29 53.38 508.17 53.33 508.06 53.27C508.05 53.26 508.04 53.26 508.02 53.25L505.91 52.22L509.04 45.82C509.13 45.64 509.24 45.47 509.38 45.31C510.44 44.09 515.43 38.3 518.23 33.88C520.73 29.93 517.59 30.41 516.19 30.78C515.82 30.88 515.48 31.03 515.19 31.24L497.23 44.16C496.9 44.4 496.64 44.7 496.47 45.05L495.46 47.11L487.25 43.1C487.2 43.07 487.14 43.05 487.09 43.03C486.84 42.9 486.59 42.78 486.34 42.65C479.01 39.07 472.01 38.32 470.71 40.98C469.41 43.64 474.3 48.7 481.63 52.28C481.88 52.4 482.12 52.52 482.37 52.63C482.43 52.66 482.48 52.7 482.54 52.73L490.75 56.74L489.74 58.8C489.57 59.15 489.49 59.54 489.5 59.95L490.35 82.05C490.36 82.4 490.45 82.76 490.6 83.12C491.17 84.45 492.72 87.22 494.3 82.82C496.07 77.89 497.57 70.4 497.88 68.81C497.92 68.61 497.98 68.42 498.07 68.23L501.2 61.83L503.31 62.86C503.34 62.88 503.38 62.89 503.41 62.91C503.5 62.96 503.59 63 503.68 63.05C507.12 64.73 512.92 66.98 518.25 68.61L518.26 77.9C518.26 78.06 518.31 78.21 518.41 78.33L521.44 82.26C521.82 82.75 522.6 82.56 522.71 81.95L523.9 75.46C523.91 75.41 523.92 75.37 523.94 75.33L525.84 70.51C528.29 70.96 530.02 70.92 530.39 70.16Z" fill="#2C7EC2"/>
<path d="M377.53 147.74L377.48 143.95C376.75 145.08 375.54 146.15 373.84 147.17C372.15 148.18 370.15 148.69 367.86 148.69C362.74 148.69 358.61 146.85 355.47 143.16C352.33 139.47 350.76 134.73 350.76 128.95C350.76 123.13 352.3 118.4 355.37 114.74C358.44 111.08 362.61 109.26 367.86 109.26C372.91 109.26 376.74 110.73 379.35 113.67C381.96 116.61 383.53 119.35 384.06 121.87L376.93 121.82C376.5 120.49 375.58 119.09 374.19 117.61C372.79 116.13 370.77 115.39 368.11 115.39C364.79 115.39 362.21 116.65 360.38 119.18C358.55 121.71 357.64 124.96 357.64 128.95C357.64 132.97 358.56 136.26 360.38 138.82C362.21 141.38 364.78 142.66 368.11 142.66C371.1 142.66 373.32 141.64 374.77 139.59C376.22 137.55 377.15 135.58 377.59 133.68H368.57V128.1H384.28L384.33 147.74H377.53Z" fill="#2C7EC2"/>
<path d="M390.24 147.64V110.25H396.62L396.67 141.61H415.47V147.64H390.24Z" fill="#2C7EC2"/>
<path d="M445.58 114.78C448.67 118.44 450.22 123.17 450.22 128.99C450.22 134.81 448.67 139.55 445.58 143.22C442.49 146.89 438.33 148.73 433.12 148.73C427.9 148.73 423.74 146.89 420.63 143.22C417.52 139.55 415.97 134.8 415.97 128.99C415.97 123.17 417.52 118.44 420.63 114.78C423.74 111.12 427.9 109.3 433.12 109.3C438.34 109.3 442.49 111.13 445.58 114.78ZM440.62 138.89C442.46 136.31 443.39 133.02 443.39 128.99C443.39 125.03 442.47 121.78 440.62 119.22C438.78 116.66 436.27 115.38 433.12 115.38C429.9 115.38 427.38 116.66 425.57 119.22C423.76 121.78 422.85 125.04 422.85 128.99C422.85 133.01 423.76 136.31 425.57 138.89C427.38 141.47 429.9 142.75 433.12 142.75C436.28 142.75 438.78 141.47 440.62 138.89Z" fill="#2C7EC2"/>
<path d="M483.23 131.01C484.66 132.66 485.29 134.86 485.12 137.62C484.95 140.58 483.65 143 481.21 144.9C478.77 146.8 475.7 147.74 472.01 147.74H455.86V110.25H471.96C475.28 110.25 477.95 111.1 479.96 112.79C481.97 114.48 483.14 116.46 483.48 118.72C483.84 121.05 483.5 122.98 482.46 124.53C481.41 126.08 480.32 127.16 479.19 127.8C480.45 128.3 481.8 129.37 483.23 131.01ZM475.23 124.01C476.21 123.21 476.7 122.1 476.7 120.67C476.7 119.41 476.2 118.37 475.2 117.55C474.2 116.74 472.82 116.33 471.06 116.33H462.34V125.2H471.02C472.84 125.2 474.25 124.81 475.23 124.01ZM476.7 140.11C477.73 139.05 478.25 137.83 478.25 136.47C478.25 135.14 477.75 133.94 476.75 132.86C475.75 131.78 474.09 131.24 471.76 131.24H462.34V141.71H471.56C473.95 141.71 475.67 141.18 476.7 140.11Z" fill="#2C7EC2"/>
<path d="M494.05 147.74H487.37L501.68 110.2H509.21L523.57 147.69H516.79L513.55 139.21H497.3L494.05 147.74ZM505.46 117.88L499.58 133.29H511.25L505.46 117.88Z" fill="#2C7EC2"/>
<path d="M527 147.64V110.25H533.38L533.43 141.61H552.23V147.64H527Z" fill="#2C7EC2"/>
<path d="M552.24 141.61C555.06 141.57 560.56 140.63 563.07 139.37C575.21 133.28 573.24 111.97 572 107.75C571.48 105.97 570.82 104.23 570.09 102.53C567.51 96.56 563.83 91.05 559.32 86.36C557.27 84.23 555.04 82.26 552.66 80.49C551.37 79.53 550.03 78.62 548.66 77.77C547.92 77.31 544.82 75.39 544.17 75.27C545.52 75.41 546.5 75.62 547.42 75.85C551.04 76.79 554.46 78.47 557.58 80.5C561.63 83.13 565.16 86.46 568.32 90.11C572.5 94.94 575.91 100.24 577.74 106.45C579.75 113.28 580.01 120.62 578.44 127.57C577.29 132.65 571.98 147.63 552.24 147.63V141.61C552.23 141.62 552.23 141.61 552.24 141.61Z" fill="#2C7EC2"/>
<path d="M542.21 75.71C542.779 75.71 543.24 75.2489 543.24 74.68C543.24 74.1112 542.779 73.65 542.21 73.65C541.641 73.65 541.18 74.1112 541.18 74.68C541.18 75.2489 541.641 75.71 542.21 75.71Z" fill="#2C7EC2"/>
<path d="M536.79 74.08C537.701 74.08 538.44 73.3413 538.44 72.43C538.44 71.5188 537.701 70.78 536.79 70.78C535.879 70.78 535.14 71.5188 535.14 72.43C535.14 73.3413 535.879 74.08 536.79 74.08Z" fill="#2C7EC2"/>
</svg>
